<svg width="24" height="24" viewBox="0 0 24 24" fill="none" xmlns="http://www.w3.org/2000/svg">
<g clip-path="url(#clip0_6114_2767)">
<path d="M17.2617 5.83008C18.7884 5.83008 20.2267 6.44111 21.3145 7.5498C22.3986 8.65116 23.0047 10.1362 23 11.6816C23 13.2368 22.385 14.7288 21.3184 15.8193C21.1308 16.0116 20.9067 16.1652 20.6592 16.2695C20.4117 16.3739 20.1456 16.4277 19.877 16.4277C19.6084 16.4277 19.3422 16.3739 19.0948 16.2695C18.8473 16.1652 18.6231 16.0116 18.4356 15.8193C18.0531 15.4264 17.839 14.8999 17.8389 14.3516C17.8389 13.8031 18.053 13.2758 18.4356 12.8828C18.7437 12.567 18.9228 12.1311 18.9229 11.6855C18.9229 10.7659 18.1613 9.98952 17.2588 9.98926C16.3562 9.98926 15.5948 10.7657 15.5948 11.6855C15.5948 12.1339 15.7761 12.5779 16.0918 12.8975C17.1555 13.9814 17.7393 15.4423 17.7393 17.0107C17.7464 18.5566 17.1399 20.0417 16.0537 21.1416C14.966 22.2503 13.5286 22.8613 12.002 22.8613H11.9981C10.4714 22.8613 9.03309 22.2503 7.94534 21.1416C6.98016 20.1609 6.39474 18.8763 6.28128 17.5156C4.92612 17.4064 3.66423 16.8139 2.68557 15.8164C1.60151 14.7151 0.995468 13.2308 1.00003 11.6855C1.00003 10.1303 1.59782 8.66246 2.68557 7.55371C3.77326 6.44512 5.21081 5.83403 6.73733 5.83398C8.264 5.83398 9.72623 6.45912 10.793 7.54688C11.5896 8.35697 11.5897 9.67527 10.793 10.4844C10.6055 10.6764 10.3811 10.8284 10.1338 10.9326C9.88638 11.0369 9.62009 11.0908 9.35159 11.0908C9.0832 11.0908 8.81767 11.0368 8.57034 10.9326C8.32302 10.8284 8.09865 10.6764 7.91116 10.4844C7.75757 10.3277 7.57422 10.2025 7.3721 10.1172C7.17002 10.0319 6.95276 9.98713 6.73342 9.98633C5.83185 9.98648 5.06936 10.7629 5.06936 11.6816C5.0695 12.6013 5.83193 13.3768 6.73342 13.377C7.17234 13.377 7.59915 13.1957 7.91116 12.8789C8.0987 12.6868 8.3229 12.5339 8.57034 12.4297C8.69739 12.3762 8.82928 12.336 8.96389 12.3096C9.10132 12.2803 9.24163 12.2647 9.38284 12.2646C9.65143 12.2646 9.91756 12.3185 10.1651 12.4229C10.4125 12.5272 10.6367 12.6799 10.8242 12.8721C11.62 13.6822 11.62 15.0004 10.8242 15.8096C10.5152 16.1254 10.3379 16.5614 10.3379 17.0068C10.338 17.9266 11.0994 18.7021 12.002 18.7021C12.9036 18.7021 13.666 17.9265 13.666 17.0068C13.666 16.6815 13.5869 16.2146 13.2129 15.8301C12.1327 14.7189 11.5265 13.2313 11.5235 11.6816C11.5235 10.1407 12.1222 8.65855 13.21 7.5498C14.2976 6.44126 15.7343 5.83019 17.2617 5.83008Z" fill="#EA5E5D" style="fill:#EA5E5D;fill:color(display-p3 0.9176 0.3686 0.3647);fill-opacity:1;"/>
<path d="M11.9979 6.51338L8.66212 3.3837C8.53599 3.27028 8.43377 3.13282 8.36144 2.97939C8.28911 2.82596 8.24814 2.65964 8.2409 2.49017C8.23367 2.3207 8.26034 2.15149 8.31933 1.99246C8.37833 1.83342 8.46847 1.68776 8.58448 1.56401C8.70049 1.44026 8.84002 1.3409 8.99492 1.27176C9.14981 1.20262 9.31695 1.16509 9.48653 1.16137C9.65611 1.15764 9.82473 1.1878 9.98251 1.25007C10.1403 1.31235 10.2841 1.40548 10.4054 1.52402L11.7412 2.77685L13.6372 0.433406C13.8544 0.186087 14.159 0.0324165 14.487 0.00457109C14.815 -0.0232743 15.1411 0.0768644 15.397 0.28402C15.6528 0.491176 15.8186 0.789285 15.8597 1.11593C15.9007 1.44257 15.8138 1.77242 15.6171 2.03641L11.9931 6.51338H11.9969H11.9979Z" fill="#23AF69" style="fill:#23AF69;fill:color(display-p3 0.1373 0.6863 0.4118);fill-opacity:1;"/>
</g>
<defs>
<clipPath id="clip0_6114_2767">
<rect width="24" height="24" fill="white" style="fill:white;fill-opacity:1;"/>
</clipPath>
</defs>
</svg>
