<svg width="24" height="24" viewBox="0 0 24 24" fill="none" xmlns="http://www.w3.org/2000/svg">
<g clip-path="url(#clip0_6118_3124)">
<path d="M11.9999 1.56836C5.66988 1.56836 2.50488 6.84336 2.50488 11.0634C2.50488 15.2834 5.66988 19.5034 8.83488 20.5574V22.6674H10.9449V20.5574C10.9449 20.5574 11.9999 20.9794 13.0549 20.5574V22.6674H15.1649V20.5574C18.3299 19.5024 21.4949 15.2834 21.4949 11.0634C21.4949 6.84336 18.3299 1.56836 11.9999 1.56836Z" fill="url(#paint0_linear_6118_3124)"/>
<path d="M3.56006 8.95249C0.396062 7.89749 -0.659938 10.0075 0.396063 12.1175C1.45106 14.2275 3.56006 13.1725 4.61606 11.0625C5.24806 9.58549 4.61606 8.95249 3.56006 8.95249Z" fill="url(#paint1_linear_6118_3124)"/>
<path d="M20.4399 8.95249C23.6039 7.89749 24.6599 10.0075 23.6039 12.1175C22.5489 14.2275 20.4399 13.1725 19.3839 11.0625C18.7519 9.58549 19.3839 8.95249 20.4399 8.95249Z" fill="url(#paint2_linear_6118_3124)"/>
<path d="M5.50683 0.874549C5.98283 0.589549 6.54283 0.641549 7.12183 0.911549C7.69883 1.18155 8.34483 1.68555 9.05883 2.39955C9.1181 2.45883 9.15141 2.53922 9.15141 2.62305C9.15141 2.70688 9.1181 2.78727 9.05883 2.84655C8.99955 2.90582 8.91916 2.93913 8.83533 2.93913C8.7515 2.93913 8.6711 2.90582 8.61183 2.84655C7.91883 2.15355 7.33283 1.70855 6.85483 1.48555C6.37983 1.26355 6.05983 1.28055 5.83283 1.41655C5.76134 1.45308 5.67865 1.46113 5.60145 1.43906C5.52426 1.41699 5.45832 1.36646 5.41693 1.29766C5.37555 1.22886 5.36182 1.14692 5.3785 1.06839C5.39519 0.989857 5.44105 0.920581 5.50683 0.874549ZM16.8768 0.912549C17.4568 0.642549 18.0168 0.589549 18.4928 0.874549C18.5586 0.920581 18.6045 0.989857 18.6212 1.06839C18.6378 1.14692 18.6241 1.22886 18.5827 1.29766C18.5413 1.36646 18.4754 1.41699 18.3982 1.43906C18.321 1.46113 18.2383 1.45308 18.1668 1.41655C17.9398 1.28055 17.6198 1.26355 17.1448 1.48555C16.6668 1.70855 16.0808 2.15355 15.3888 2.84655C15.3595 2.87597 15.3246 2.89931 15.2862 2.91526C15.2479 2.9312 15.2067 2.93943 15.1652 2.93948C15.1236 2.93953 15.0825 2.93139 15.0441 2.91553C15.0057 2.89967 14.9707 2.8764 14.9413 2.84705C14.9119 2.8177 14.8886 2.78284 14.8726 2.74447C14.8567 2.7061 14.8484 2.66496 14.8484 2.6234C14.8484 2.58185 14.8565 2.54069 14.8723 2.50228C14.8882 2.46387 14.9115 2.42897 14.9408 2.39955C15.6548 1.68555 16.3008 1.18155 16.8768 0.912549Z" fill="#FF4D4D" style="fill:#FF4D4D;fill:color(display-p3 1.0000 0.3020 0.3020);fill-opacity:1;"/>
<path d="M8.83485 8.10915C9.17061 8.10915 9.49262 7.97577 9.73004 7.73835C9.96747 7.50092 10.1008 7.17891 10.1008 6.84315C10.1008 6.50738 9.96747 6.18537 9.73004 5.94795C9.49262 5.71053 9.17061 5.57715 8.83485 5.57715C8.49908 5.57715 8.17707 5.71053 7.93965 5.94795C7.70223 6.18537 7.56885 6.50738 7.56885 6.84315C7.56885 7.17891 7.70223 7.50092 7.93965 7.73835C8.17707 7.97577 8.49908 8.10915 8.83485 8.10915ZM15.1648 8.10915C15.5006 8.10915 15.8226 7.97577 16.06 7.73835C16.2975 7.50092 16.4308 7.17891 16.4308 6.84315C16.4308 6.50738 16.2975 6.18537 16.06 5.94795C15.8226 5.71053 15.5006 5.57715 15.1648 5.57715C14.8291 5.57715 14.5071 5.71053 14.2697 5.94795C14.0322 6.18537 13.8988 6.50738 13.8988 6.84315C13.8988 7.17891 14.0322 7.50092 14.2697 7.73835C14.5071 7.97577 14.8291 8.10915 15.1648 8.10915Z" fill="#050810" style="fill:#050810;fill:color(display-p3 0.0196 0.0314 0.0627);fill-opacity:1;"/>
<path d="M9.04605 7.15952C9.18609 7.15952 9.32039 7.10389 9.41941 7.00487C9.51843 6.90585 9.57405 6.77155 9.57405 6.63152C9.57405 6.49148 9.51843 6.35718 9.41941 6.25816C9.32039 6.15914 9.18609 6.10352 9.04605 6.10352C8.90615 6.10352 8.77198 6.15909 8.67306 6.25802C8.57413 6.35694 8.51855 6.49111 8.51855 6.63102C8.51855 6.77092 8.57413 6.90509 8.67306 7.00401C8.77198 7.10294 8.90615 7.15952 9.04605 7.15952ZM15.3761 7.15952C15.516 7.15952 15.6501 7.10394 15.7491 7.00501C15.848 6.90609 15.9036 6.77192 15.9036 6.63202C15.9036 6.49211 15.848 6.35794 15.7491 6.25902C15.6501 6.16009 15.516 6.10452 15.3761 6.10452C15.2363 6.10452 15.1022 6.16004 15.0034 6.25887C14.9046 6.3577 14.8491 6.49175 14.8491 6.63152C14.8491 6.77128 14.9046 6.90533 15.0034 7.00416C15.1022 7.10299 15.2363 7.15952 15.3761 7.15952Z" fill="#00E5CC" style="fill:#00E5CC;fill:color(display-p3 0.0000 0.8980 0.8000);fill-opacity:1;"/>
</g>
<defs>
<linearGradient id="paint0_linear_6118_3124" x1="-0.659118" y1="-0.54164" x2="27.0229" y2="21.8554" gradientUnits="userSpaceOnUse">
<stop stop-color="#FF4D4D" style="stop-color:#FF4D4D;stop-color:color(display-p3 1.0000 0.3020 0.3020);stop-opacity:1;"/>
<stop offset="1" stop-color="#991B1B" style="stop-color:#991B1B;stop-color:color(display-p3 0.6000 0.1059 0.1059);stop-opacity:1;"/>
</linearGradient>
<linearGradient id="paint1_linear_6118_3124" x1="6.25092e-05" y1="8.67149" x2="4.31106" y2="13.9485" gradientUnits="userSpaceOnUse">
<stop stop-color="#FF4D4D" style="stop-color:#FF4D4D;stop-color:color(display-p3 1.0000 0.3020 0.3020);stop-opacity:1;"/>
<stop offset="1" stop-color="#991B1B" style="stop-color:#991B1B;stop-color:color(display-p3 0.6000 0.1059 0.1059);stop-opacity:1;"/>
</linearGradient>
<linearGradient id="paint2_linear_6118_3124" x1="19.3849" y1="8.95249" x2="24.3989" y2="13.4615" gradientUnits="userSpaceOnUse">
<stop stop-color="#FF4D4D" style="stop-color:#FF4D4D;stop-color:color(display-p3 1.0000 0.3020 0.3020);stop-opacity:1;"/>
<stop offset="1" stop-color="#991B1B" style="stop-color:#991B1B;stop-color:color(display-p3 0.6000 0.1059 0.1059);stop-opacity:1;"/>
</linearGradient>
<clipPath id="clip0_6118_3124">
<rect width="24" height="24" fill="white" style="fill:white;fill-opacity:1;"/>
</clipPath>
</defs>
</svg>
