<svg width="210" height="44" viewBox="0 0 210 44" fill="none" xmlns="http://www.w3.org/2000/svg">
  <g transform="translate(0 6) scale(0.19)">
    <path d="M17.537 106.701C16.5895 108.513 17.9001 110.686 19.9404 110.686H66.0462C67.4292 110.686 68.591 111.729 68.7434 113.108L74.699 166.973C74.9441 169.19 72.5712 170.745 70.6448 169.63L1.35689 129.517C0.517246 129.031 0 128.133 0 127.161V42.8857C0 41.9135 0.517238 41.0152 1.35688 40.5291L70.1393 0.709073C71.3164 0.0275892 72.6507 1.31215 72.0194 2.51922L17.537 106.701Z" fill="#475CFF"/>
    <path d="M149.643 40.5291C150.483 41.0152 151 41.9135 151 42.8857V127.161C151 128.133 150.483 129.031 149.643 129.517L81.3715 169.041C80.1943 169.723 78.8601 168.438 79.4914 167.231L133.463 64.0254C134.411 62.2135 133.1 60.0405 131.06 60.0405H84.9538C83.5708 60.0405 82.409 58.9976 82.2566 57.6192L76.2209 3.02666C75.9758 0.80976 78.3486 -0.745011 80.275 0.370231L149.643 40.5291Z" fill="#475CFF"/>
  </g>
  <text x="39" y="29.5" fill="#111827" font-family="Inter, ui-sans-serif, system-ui, -apple-system, sans-serif" font-size="19" font-weight="600" letter-spacing="-0.01em">ShuYou Docs</text>
</svg>
